:SAMPLES-PER-SECOND 30
:FULLY-SPECIFIED
:DEGREES
31
root  83.0922 40.3949 -3.64837 -174.346 -87.4152 174.142
RightUpLeg  0.0138444 -8.33198 -5.56673
RightLeg  3.63584 -6.0098 3.73354
RightFoot  -2.38774 0.0802414 -1.23161
RightToes  -1.16417e-010 0 -3.6325e-017
Spine  3.04501 0.0811049 3.22045
Spine1  7.2742 -0.0757946 0.586961
HEad  -8.82685 4.35625 -1.5105
LeftShoulder1  9.13821 -12.3008 -50.4671
LeftArm  -11.8201 17.571 -31.1399
LeftForeArm  22.8416 -11.8734 -4.82394
LeftHand  -0.244104 0.0205437 5.32207
RightShoulder  6.17793 9.11673 42.6372
RightArm  2.87431 -17.2349 32.0464
RightForeArm  -5.01328 17.3112 6.50113
RightHand  -0.244847 -2.89164 -10.8999
LeftUpLeg  1.65378 7.18979 6.12084
LeftLeg  1.10012 12.9652 -4.62468
LeftFoot  -1.5134 0.181063 -1.92916
LeftToes  -1.16419e-010 -9.34044e-011 -2.32061e-011
32
root  83.0754 40.3856 -3.70976 -172.602 -87.4101 172.273
RightUpLeg  -0.0139767 -8.3389 -5.57142
RightLeg  4.04844 -6.01972 3.66856
RightFoot  -2.69329 0.0815218 -1.31928
RightToes  -1.16417e-010 0 -3.6325e-017
Spine  3.85403 -0.0253782 3.48471
Spine1  6.83691 -0.0792737 0.257154
HEad  -9.57497 4.22453 -1.53807
LeftShoulder1  9.16361 -12.4078 -50.2701
LeftArm  -9.86813 17.2209 -29.071
LeftForeArm  25.0574 -12.7883 -4.98316
LeftHand  -0.244104 0.0205437 5.32207
RightShoulder  6.20497 9.19564 42.5526
RightArm  10.5625 -17.4983 30.7788
RightForeArm  -5.96058 19.6729 5.97789
RightHand  -0.1702 -3.5279 -9.86657
LeftUpLeg  1.84462 7.12699 6.11179
LeftLeg  1.04645 13.0233 -4.55339
LeftFoot  -1.50877 0.192486 -2.10677
LeftToes  -1.16419e-010 -9.34044e-011 -2.32061e-011
33
root  83.0444 40.3797 -3.79489 -170.015 -87.4681 169.673
RightUpLeg  -0.0948706 -8.3592 -5.55895
RightLeg  4.39842 -6.07323 3.61945
RightFoot  -2.99731 0.0817017 -1.39844
RightToes  -1.16417e-010 0 -3.6325e-017
Spine  4.02737 -0.19355 3.6917
Spine1  7.17509 -0.203218 0.0717053
HEad  -10.5094 4.24011 -1.74438
LeftShoulder1  9.17011 -12.4704 -50.1105
LeftArm  -9.00886 16.5333 -27.5403
LeftForeArm  26.7431 -13.6939 -4.85726
LeftHand  -0.244104 0.0205437 5.32207
RightShoulder  6.23106 9.34609 42.2101
RightArm  15.1406 -17.7902 30.3217
RightForeArm  -8.30048 21.4475 5.61286
RightHand  -0.198971 -3.19806 -9.92829
LeftUpLeg  1.96929 6.96321 6.03497
LeftLeg  0.872367 13.0886 -4.4199
LeftFoot  -1.46994 0.201395 -2.22883
LeftToes  -1.16419e-010 -9.34044e-011 -2.32061e-011
34
root  83.0011 40.3752 -3.90837 -166.813 -87.5587 166.667
RightUpLeg  -0.369915 -8.36077 -5.47455
RightLeg  4.7267 -6.21267 3.5759
RightFoot  -3.29433 0.0866216 -1.54887
RightToes  -1.16417e-010 0 -3.6325e-017
Spine  3.83212 -0.266938 3.68478
Spine1  7.66344 -0.328859 0.244604
HEad  -11.3765 4.13097 -1.99731
LeftShoulder1  9.21283 -12.5586 -50.0679
LeftArm  -9.0164 15.8684 -26.4532
LeftForeArm  26.4897 -14.3373 -4.68423
LeftHand  -0.244104 0.0205437 5.32207
RightShoulder  6.18219 9.3784 41.7431
RightArm  16.6981 -18.2196 30.4865
RightForeArm  -9.76459 22.3879 5.53324
RightHand  -0.249217 -2.6647 -10.2321
LeftUpLeg  1.90076 6.84625 6.00304
LeftLeg  0.647924 13.0842 -4.35219
LeftFoot  -1.34828 0.215738 -2.37503
LeftToes  -1.16419e-010 -9.34044e-011 -2.32061e-011
35
root  82.9502 40.3718 -4.04586 -163.774 -87.7151 163.933
RightUpLeg  -0.663105 -8.3019 -5.29647
RightLeg  4.8883 -6.50263 3.56749
RightFoot  -3.5541 0.0962401 -1.76732
RightToes  -1.16417e-010 0 -3.6325e-017
Spine  3.95307 -0.206711 3.81134
Spine1  7.40351 -0.25843 0.259463
HEad  -11.9659 3.75352 -2.05166
LeftShoulder1  9.35723 -12.7857 -50.1449
LeftArm  -8.81943 15.3987 -25.3348
LeftForeArm  25.2815 -14.7893 -4.6362
LeftHand  -0.244104 0.0205437 5.32207
RightShoulder  6.15326 9.25119 41.9775
RightArm  16.7748 -19.122 30.5051
RightForeArm  -11.0524 23.0633 5.55433
RightHand  -0.246291 -2.82116 -10.7376
LeftUpLeg  1.71363 6.8277 6.08595
LeftLeg  0.435079 13.0083 -4.34719
LeftFoot  -1.17199 0.234133 -2.5525
LeftToes  -1.16419e-010 -9.34044e-011 -2.32061e-011
